<?xml version="1.0" encoding="utf-8"?>
<!-- Generator: Adobe Illustrator 23.0.1, SVG Export Plug-In . SVG Version: 6.00 Build 0)  -->
<svg version="1.1" id="Layer_1" xmlns="http://www.w3.org/2000/svg" xmlns:xlink="http://www.w3.org/1999/xlink" x="0px" y="0px"
	 viewBox="0 0 419.5 66.6" style="enable-background:new 0 0 419.5 66.6;" xml:space="preserve">
<style type="text/css">
	.st0{fill:#F1F2F2;}
	.st1{fill:#595959;}
	.st2{fill:#7A3A1A;}
	.st3{fill:#F8BA19;}
	.st4{fill:#B46C29;}
	.st5{fill:#F6A51D;}
	.st6{fill:#E78E24;}
	.st7{fill:#EF7522;}
	.st8{fill:#677E37;}
	.st9{fill:#718E3B;}
	.st10{fill:#6B7A34;}
	.st11{fill:#E87524;}
	.st12{fill:#D27828;}
</style>
<g>
	<path class="st0" d="M9.7,32.6c0-13.5,10.7-23.7,25.1-23.7c4.6,0,9.8,1.5,13.7,4.4v9.1c-3.6-3.7-8.6-5.6-13.5-5.6
		c-9.7,0-16.6,6.8-16.6,15.9c0,9.1,6.8,15.8,16.6,15.8c4.9,0,10-2,13.5-5.6v9c-3.9,2.9-9.1,4.4-13.7,4.4
		C20.4,56.2,9.7,46.1,9.7,32.6z"/>
	<path class="st0" d="M55.6,32.6c0-13.5,10.5-23.7,24.3-23.7c13.8,0,24.3,10.2,24.3,23.7c0,13.4-10.5,23.6-24.3,23.6
		C66.1,56.2,55.6,46.1,55.6,32.6z M95.5,32.6c0-9.2-6.6-15.9-15.6-15.9s-15.6,6.8-15.6,15.9c0,9.1,6.6,15.8,15.6,15.8
		S95.5,41.7,95.5,32.6z"/>
	<path class="st0" d="M111.2,32.6c0-13.5,10.5-23.7,24.3-23.7c13.8,0,24.3,10.2,24.3,23.7c0,13.4-10.5,23.6-24.3,23.6
		C121.7,56.2,111.2,46.1,111.2,32.6z M151.1,32.6c0-9.2-6.6-15.9-15.6-15.9s-15.6,6.8-15.6,15.9c0,9.1,6.6,15.8,15.6,15.8
		S151.1,41.7,151.1,32.6z"/>
	<path class="st0" d="M183.7,34l-6.2,6.2v15.1H169V9.7h8.4v18.6l18.8-18.6H208L189.6,28l19.9,27.4h-10.5L183.7,34z"/>
	<path class="st0" d="M251.3,41c0,7.6-6.2,14.4-15.6,14.4h-18.9V9.7h16.9c8.4,0,13.6,6.1,13.6,12c0,3.2-1.6,6.4-4.2,8.1
		C248.1,31.6,251.3,36.1,251.3,41z M225.2,17.2V27h8.1c3.2,0,5.3-2.2,5.3-4.9c0-2.7-2.1-4.9-5.3-4.9H225.2z M242.6,41
		c0-3.9-2.9-6.9-7.3-6.9h-10.1v13.8h10.1C239.7,47.9,242.6,44.8,242.6,41z"/>
	<path class="st0" d="M257.7,32.6c0-13.5,10.5-23.7,24.3-23.7s24.3,10.2,24.3,23.7c0,13.4-10.5,23.6-24.3,23.6
		S257.7,46.1,257.7,32.6z M297.6,32.6c0-9.2-6.6-15.9-15.6-15.9s-15.6,6.8-15.6,15.9c0,9.1,6.6,15.8,15.6,15.8
		S297.6,41.7,297.6,32.6z"/>
	<path class="st0" d="M313.3,32.6c0-13.5,10.5-23.7,24.3-23.7s24.3,10.2,24.3,23.7c0,13.4-10.5,23.6-24.3,23.6
		S313.3,46.1,313.3,32.6z M353.1,32.6c0-9.2-6.6-15.9-15.6-15.9S322,23.5,322,32.6c0,9.1,6.6,15.8,15.6,15.8S353.1,41.7,353.1,32.6z
		"/>
	<path class="st0" d="M385.7,34l-6.2,6.2v15.1h-8.4V9.7h8.4v18.6l18.8-18.6H410L391.7,28l19.9,27.4h-10.5L385.7,34z"/>
</g>
<g id="_x33_IzMMJ.tif_1_">
	<g>
		<path class="st0" d="M324.2,11.6c2.4-1.3,4.8-2.5,7.5-3.1c18.4-4.5,34.8,12.3,29.9,30.7c0,0.2-0.1,0.3-0.1,0.5
			c-0.1,0.1-0.1,0.2,0.1,0.3l0,0c-0.4,1-0.9,1.9-1.3,2.9c-1.6,3.5-3.8,6.4-6.7,8.8c-0.8,0.6-1.7,1.3-2.5,1.9c-2.6,1.4-5.2,2.6-8,3.2
			c-17.9,4-33.9-12.3-29.5-30.1c0.1-0.5,0.4-1,0.2-1.5c0.4-1,0.9-1.9,1.3-2.9c1.6-3.5,3.8-6.4,6.7-8.8
			C322.6,12.9,323.4,12.2,324.2,11.6z M325.1,50.1c9.2,7.3,23.3,4.3,29.8-4.3c7.5-9.9,5.4-24.2-5-31.2c-9.8-6.6-22.6-4.5-29.8,5.2
			C313,29.4,315.2,43.5,325.1,50.1z"/>
		<path class="st0" d="M324.2,11.6c-0.8,0.6-1.7,1.3-2.5,1.9c0.1-0.2,0-0.4-0.2-0.5c-2.1-1.1-5.5-0.2-7.1,1.9
			c-1.7,2.2-1.6,5.8,0.1,7.5c0.3,0.3,0.4,0,0.5-0.1c-0.4,1-0.9,1.9-1.3,2.9c-3.8-2.7-4.3-9-0.8-12.5C316,9.6,320.6,9.1,324.2,11.6z"
			/>
		<path class="st0" d="M351.1,53.6c0.8-0.6,1.7-1.3,2.5-1.9c-0.1,0.2,0,0.4,0.2,0.5c2.1,1.2,5.5,0.2,7.2-2c1.6-2.1,1.6-5.2-0.1-7.4
			c-0.2-0.3-0.4-0.1-0.6,0.1c0.4-1,0.9-1.9,1.3-2.9c3.3,2.3,4.2,7.7,1.8,11.2C360.6,55.4,355.4,56.4,351.1,53.6z"/>
		<path class="st1" d="M361.6,39.9c-0.1-0.1-0.2-0.2-0.1-0.3C361.5,39.7,361.6,39.8,361.6,39.9z"/>
		<path class="st2" d="M325.1,50.1c-9.9-6.6-12.1-20.7-4.9-30.3c7.2-9.7,20-11.7,29.8-5.2c10.4,7,12.4,21.3,5,31.2
			C348.4,54.4,334.3,57.4,325.1,50.1z M331.8,24.2c-0.3-1-1.1-0.8-1.8-0.7c-0.6,0.7-0.3,1.4,0,2c0.2,0.5,0.1,0.8,0,1.2
			c-0.6,0-1.2,0-1.8,0.1c-1,0-1.8,0.5-1.9,1.5c-0.1,1.2-0.7,2.6,0.6,3.6c0.8,0.6,1.6,0.3,2.5,0c0.1,0.2,0.3,0.4,0.4,0.7
			c0.9,1.9,1.9,2.2,3.6,0.8c1-0.8,1.9-1.6,3.1-2.2c0.3,1.3,1.2,1.9,2.5,2c0.4,0,0.8-0.2,1.1,0c-0.6,0.3-1.1,0.8-1.5,1.3
			c-0.2-0.2-0.3-0.5-0.5-0.6c-1-0.9-2.9-0.8-3.8,0.1c-0.7,0.7-0.5,1.5,0.5,2.5c-0.4,0.3-0.8,0.7-0.9,1.3c-1.1-0.3-1.5,0-1.1,1.2
			c0.3,1,0.5,2.1,0.7,3.1c0.4,2.1,0.3,1.6,1.8,0.7c1.3-0.8,2.6-1.6,2.4-3.4c0.3-0.3,0.6-0.5,0.9-0.8c0,0.1,0.1,0.1,0.1,0.2
			c0.6,1.1,1.6,1.7,2.9,1.5c0.8-0.1,1.6-0.4,1.8-1.3c0.3-1.3-0.8-1.7-1.6-2.3c0.2-0.1,0.4-0.2,0.5-0.3c1.1,0.1,1.6-0.6,2.1-1.5
			c0.1-0.1,0.3-0.2,0.4-0.2c1.2,0.4,1.5-0.2,1.8-1.2c0.3-0.9-0.1-2.2,1.3-2.5c0.1,0,0.1-0.3,0.2-0.4c0.3-0.6,0.6-1.3,0.9-1.9
			c0.1-0.3,0.4-0.7-0.1-1c-0.1-0.1-0.1-0.1-0.2-0.2c0.8-0.4,1.6-0.8,2.3-1.4c0.5-0.4,0.8-0.9,0.8-1.5c0-2.6-1.9-3.8-4.2-2.8
			c0.1-0.9-0.3-1.4-1.2-1.6c-0.8-0.1-1.4,0.1-1.8,0.8c-0.3,0.8,0,1.4,0.7,1.9c0.2,0.1,0.4,0.3,0.6,0.4c-0.2,0.2-0.4,0.4-0.6,0.5
			c-1.9,1.5-2,2.3-0.2,4c-0.2,0.4-0.2,0.9-0.8,1.4c0.3-1,0.2-1.8-0.7-2c-0.7-0.1-1.7-1-2.3,0.1c-0.4,0.8-0.8,1.6-0.7,2.6
			c-0.9-0.4-1.9-0.5-2.8-0.1c-0.5,0.2-0.2-0.2-0.3-0.3c1.3-0.8,0.8-2,0.6-3.1c2.3,1.4,3.7,0.8,4.3-1.8c0.3-1.2,0.3-2.4,0.2-3.6
			c-0.1-1.3-0.7-1.8-2-1.9c-0.3,0-0.5,0-0.8,0c-2.2-0.1-2.9,0.7-2.4,2.8c0.4,1.5,0.6,3.1,0.8,4.6c-0.7-0.8-1.3-1.7-2.6-1.2
			c-1,0.4-1,1.3-1,2.2c-0.3,0.2-0.7,0.2-1.1,0.2c-0.2-0.2-0.3-0.3-0.5-0.5c0-0.1,0-0.2,0.1-0.2c0.1-0.3-0.5-0.9,0.4-0.7
			c0.6,0.2,0.7-0.1,0.8-0.7c0.1-0.9-0.1-1.4-1.2-1.4C332.6,24.2,332.2,24.5,331.8,24.2L331.8,24.2z M330.5,34.4
			c-0.8-0.1-1.4,0.4-1.8,1c-0.3,0.5-0.5,0.5-0.9,0.4c-0.1-0.2-0.1-0.4-0.3-0.5c-0.7-1.1-2-1.6-3-1.3c-1.5,0.4-2.2,1.3-2.2,2.8
			c0,1.2,0.9,2.4,2.1,2.7c1.1,0.3,2.3-0.1,3-1.2c0.3-0.1,0.6-0.3,0.9-0.4c0.6,0-0.2,1.1,0.5,0.8c0.5-0.2,0.6-0.2,0.8,0.2
			c0.4,0.8,1,0.2,1.4,0.1c0.6-0.2,0.5-0.6,0.3-1c-0.3-0.6-0.5-1.2-0.4-2C331,35.5,331,34.8,330.5,34.4z M345.4,48.3
			c1.4,1.1,4.1,0.6,5.1-0.8c1.1-1.5,0.7-4-0.9-5.1c-1.5-1.1-4-0.7-5.1,1C343.5,44.8,343.9,47.2,345.4,48.3z M321.9,25
			c1.7,1.2,3.6,1,5.1-0.8c1.1-1.4,0.6-3.8-0.9-4.9c-1.6-1.2-3.8-0.9-5,0.7C320,21.5,320.3,23.9,321.9,25z M339,44.9
			c-0.7,0.8-0.5,2.1,0.2,2.5c0.8,0.5,1.5,0.2,2.1-0.4c0.5-0.6,0.4-1.8-0.3-2.2C340.2,44.3,339.5,44.4,339,44.9z M334.9,21.8
			c0-0.6,0-1.3-0.6-1.6c-0.5-0.3-1.1-0.6-1.8-0.4c-0.2,0.1,0,2.5,0.2,2.6C333.6,22.8,334.1,21.9,334.9,21.8z M331.8,45.6
			c0.5,0.5,0.8,0.4,1.2-0.1c0.5-0.6,0.3-1.1-0.3-1.5c-0.6-0.4-0.9-0.1-1.2,0.3C331.1,44.9,331.2,45.3,331.8,45.6z M355.4,23.8
			c-0.5-0.2-1-0.3-1.3,0.2c-0.4,0.6-0.2,1.1,0.2,1.4c0.5,0.4,1,0.1,1.3-0.3C356,24.7,355.7,24.2,355.4,23.8z M352.5,39.2
			c0.3-0.4,0.5-0.7,0-1.1c-0.4-0.3-0.8-0.3-1.1,0.1c-0.3,0.4-0.4,0.7,0.1,1.1C351.9,39.6,352.2,39.7,352.5,39.2z M333.1,17
			c0.4,0.1,0.9,0.2,1.1-0.2c0.2-0.3,0.2-0.9-0.2-1.2c-0.4-0.2-0.9-0.1-1.2,0.2C332.6,16.2,332.9,16.6,333.1,17z M335.9,50.9
			c0.3-0.4,0.1-0.8-0.2-1c-0.4-0.3-0.9-0.1-1.1,0.3c-0.3,0.3-0.1,0.8,0.2,1C335.1,51.4,335.5,51.2,335.9,50.9z"/>
		<path class="st3" d="M340.2,33.2c-0.4-0.2-0.8,0-1.1,0c-1.3-0.1-2.1-0.7-2.5-2c-1.2,0.6-2.2,1.4-3.1,2.2c-1.7,1.3-2.7,1.1-3.6-0.8
			c-0.1-0.2-0.3-0.5-0.4-0.7c-0.5-1.2,0.1-2.1,1-2.7c0.9-0.7,2-1.2,3-1.6c0.4,0,0.7,0,1.1-0.2c1.2,0,2.2,0.3,2.6,1.6
			c0.1,0.2,0.2,0.3,0.3,0.5c0,0.2-0.2,0.6,0.3,0.3c1-0.4,1.9-0.3,2.8,0.1c0.4,0.4,0.9,0.4,1.4,0.5c1.1,0.2,0.7,0.6,0.2,1
			c-0.2,0.1-0.3,0.2-0.5,0.3C341.2,32.3,340.7,32.7,340.2,33.2L340.2,33.2z"/>
		<path class="st4" d="M345.4,48.3c-1.5-1.1-1.9-3.5-0.9-5c1.2-1.6,3.6-2.1,5.1-1c1.5,1.1,1.9,3.6,0.9,5.1
			C349.5,49,346.8,49.4,345.4,48.3z"/>
		<path class="st5" d="M338,26.4c-0.2-1.5-0.4-3.1-0.8-4.6c-0.5-2.1,0.2-2.9,2.4-2.8c0.3,0,0.6,0,0.8,0c1.2,0.1,1.8,0.7,2,1.9
			c0.1,1.2,0.1,2.4-0.2,3.6C341.7,27.1,340.3,27.8,338,26.4C338,26.4,338,26.4,338,26.4z"/>
		<path class="st6" d="M345,27.9c-1.8-1.7-1.7-2.6,0.2-4c0.2-0.2,0.4-0.4,0.6-0.5c0.7-0.4,1.2-0.9,1.7-1.6c2.3-1,4.2,0.2,4.2,2.8
			c0,0.6-0.2,1.1-0.8,1.5c-0.7,0.5-1.5,1-2.3,1.4C347.5,27.8,346.3,28.2,345,27.9z"/>
		<path class="st4" d="M321.9,25c-1.5-1.1-1.9-3.5-0.7-5.1c1.1-1.5,3.3-1.8,5-0.7c1.5,1.1,2.1,3.5,0.9,4.9
			C325.5,26,323.5,26.1,321.9,25z M322.7,23.8c1.1,0.8,2.4,0.7,3.2-0.3c0.8-1,0.6-2.5-0.4-3.3c-0.9-0.7-2.5-0.4-3.2,0.6
			C321.4,21.9,321.6,23,322.7,23.8z"/>
		<path class="st5" d="M342.3,36.3c-0.2,0.1-0.4,0.2-0.5,0.3c-0.5,0.7-1,1.6-2,1.2c-1-0.4-1,0.1-1.1,0.7c-0.3,0.3-0.6,0.5-0.9,0.8
			c-0.2-1-0.7-1.4-1.8-1.4c-0.6,0.1-1.3-0.1-2-0.2c0.1-0.6,0.5-0.9,0.9-1.3c0.5-0.6,1.4-0.5,1.8-0.3c1.8,0.7,1.8-0.4,1.9-1.6
			c0.5-0.5,0.9-1,1.5-1.3c0,0,0,0,0,0c0.3,0,0.7-0.1,1-0.1C342.4,33.8,342.5,35,342.3,36.3z"/>
		<path class="st4" d="M327.4,38.3c-0.8,1.1-2,1.6-3,1.2c-1.2-0.4-2.1-1.6-2.1-2.7c0-1.5,0.7-2.4,2.2-2.8c1.1-0.3,2.3,0.2,3,1.3
			c0.1,0.2,0.2,0.4,0.3,0.5C326.4,36.6,326.4,37.1,327.4,38.3z"/>
		<path class="st5" d="M333.4,27.6c-1.1,0.4-2.2,0.8-3,1.6c-0.8,0.7-1.5,1.5-1,2.7c-0.8,0.2-1.7,0.6-2.5,0c-1.3-1-0.7-2.4-0.6-3.6
			c0.1-0.9,0.9-1.4,1.9-1.5c0.6,0,1.2,0,1.8-0.1c1,0.1,1.9,0.3,2.9,0.4C333.1,27.3,333.2,27.4,333.4,27.6z"/>
		<path class="st7" d="M333.9,37.7c0.7,0.1,1.3,0.3,2,0.2c1.1-0.1,1.7,0.3,1.8,1.4c0.2,1.8-1,2.6-2.4,3.4c-1.5,0.9-1.4,1.4-1.8-0.7
			c-0.2-1-0.4-2.1-0.7-3.1C332.5,37.8,332.9,37.5,333.9,37.7z"/>
		<path class="st8" d="M348.9,27.6c0.5,0.3,0.2,0.7,0.1,1c-0.3,0.6-0.6,1.3-0.9,1.9c-0.1,0.1-0.1,0.4-0.2,0.4
			c-1.4,0.3-1,1.6-1.3,2.5c-0.3,1-0.6,1.7-1.8,1.2c-0.1,0-0.3,0.1-0.4,0.2c0-0.4-0.4-0.5-0.7-0.5c-0.8-0.1-0.9-0.5-0.6-1.1
			c0.1-0.3,0.1-0.5,0.2-0.8c0.3-0.8-0.2-0.6-0.7-0.5c0.6-1.1,1.9-1.1,2.8-1.9C346.4,29,348,28.7,348.9,27.6z"/>
		<path class="st9" d="M348.9,27.6c-0.9,1.1-2.4,1.5-3.4,2.4c-0.8,0.8-2.2,0.8-2.8,1.9c0,0,0,0,0,0c-0.2-0.1-0.2,0-0.1,0.2
			c-0.2,0.3-0.5,0.4-0.8,0.3c0-0.1,0.1-0.1,0.1-0.2c0.2-0.2,0.4-0.4,0.3-0.7c0.5-0.4,0.9-0.8-0.2-1c-0.5-0.1-1-0.1-1.4-0.5
			c-0.1-1,0.3-1.8,0.7-2.6c0.6-1.1,1.6-0.2,2.3-0.1c1,0.2,1,1,0.7,2c0.6-0.5,0.6-1,0.8-1.4c1.3,0.4,2.4-0.1,3.6-0.5
			C348.7,27.5,348.8,27.5,348.9,27.6z"/>
		<path class="st3" d="M338.6,34.5c-0.1,1.2-0.2,2.3-1.9,1.6c-0.5-0.2-1.3-0.3-1.8,0.3c-1-1-1.1-1.8-0.5-2.5
			c0.8-0.9,2.8-0.9,3.8-0.1C338.3,34.1,338.5,34.3,338.6,34.5z"/>
		<path class="st3" d="M338.6,38.5c0.1-0.6,0.2-1.1,1.1-0.7c1,0.5,1.5-0.5,2-1.2c0.8,0.6,1.9,1,1.6,2.3c-0.2,0.9-1,1.2-1.8,1.3
			c-1.3,0.2-2.3-0.4-2.9-1.5C338.7,38.7,338.7,38.6,338.6,38.5z"/>
		<path class="st5" d="M337.4,29.5c-0.1-0.2-0.3-0.3-0.3-0.5c-0.4-1.3-1.4-1.6-2.6-1.6c-0.1-0.9,0-1.8,1-2.2
			c1.3-0.5,1.9,0.5,2.6,1.2c0,0,0,0,0,0C338.2,27.5,338.7,28.7,337.4,29.5z"/>
		<path class="st4" d="M339,44.9c0.5-0.5,1.2-0.6,1.9-0.2c0.7,0.4,0.9,1.6,0.3,2.2c-0.6,0.6-1.3,0.9-2.1,0.4
			C338.5,46.9,338.4,45.7,339,44.9z"/>
		<path class="st10" d="M330.5,34.4c0.5,0.4,0.5,1,0.5,1.5c-0.1,0.7,0.1,1.4,0.4,2c0.2,0.5,0.3,0.9-0.3,1c-0.5,0.1-1,0.7-1.4-0.1
			c-0.2-0.4-0.3-0.4-0.8-0.2c-0.7,0.3,0.1-0.8-0.5-0.8c0.7-0.1,1-0.5,1.2-1C329.9,36,330.2,35.2,330.5,34.4z"/>
		<path class="st9" d="M330.5,34.4c-0.3,0.8-0.6,1.6-0.9,2.4c-0.2,0.6-0.6,1-1.2,1c-0.3,0.1-0.6,0.3-0.9,0.4c-1.1-1.2-1-1.7,0.4-2.5
			c0.4,0.1,0.6,0.1,0.9-0.4C329.1,34.8,329.7,34.4,330.5,34.4z"/>
		<path class="st4" d="M347.6,21.7c-0.4,0.7-1,1.2-1.7,1.6c-0.2-0.1-0.4-0.3-0.6-0.4c-0.7-0.5-1-1.1-0.7-1.9c0.3-0.7,1-1,1.8-0.8
			C347.3,20.3,347.7,20.8,347.6,21.7z"/>
		<path class="st3" d="M341.7,32.3c0.4,0.1,0.6,0,0.8-0.3c0-0.1,0.1-0.1,0.1-0.2c0,0,0,0,0,0c0.4-0.1,0.9-0.3,0.7,0.5
			c-0.1,0.3-0.1,0.5-0.2,0.8c-0.2,0.6-0.2,1.1,0.6,1.1c0.3,0,0.6,0.1,0.7,0.5c-0.4,0.8-1,1.5-2.1,1.5c0.2-1.3,0.1-2.5-1.1-3.3
			C341.3,32.8,341.5,32.6,341.7,32.3z"/>
		<path class="st9" d="M332.9,27.1c-1-0.1-1.9-0.3-2.9-0.4c0.1-0.4,0.2-0.7,0-1.2c-0.3-0.6-0.6-1.3,0-2c0.5,0.5,1.1,0.7,1.8,0.7
			c0,0,0,0,0,0c-0.5,0.5-0.5,1,0,1.5c0.4,0.4,0.7,0.9,1.2,1.2C332.9,26.9,332.9,27,332.9,27.1z"/>
		<path class="st8" d="M333,26.9c-0.5-0.3-0.8-0.8-1.2-1.2c-0.5-0.5-0.6-1,0-1.5c0.4,0.3,0.8,0,1.2,0c1.1,0,1.3,0.5,1.2,1.4
			c-0.1,0.5-0.2,0.8-0.8,0.7C332.5,25.9,333,26.6,333,26.9z"/>
		<path class="st11" d="M334.9,21.8c-0.8,0.1-1.3,0.9-2.1,0.7c-0.2-0.1-0.4-2.5-0.2-2.6c0.6-0.2,1.2,0,1.8,0.4
			C334.9,20.6,334.9,21.2,334.9,21.8z"/>
		<path class="st10" d="M331.8,45.6c-0.6-0.3-0.8-0.7-0.3-1.3c0.4-0.4,0.7-0.8,1.2-0.3c0.5,0.4,0.7,0.8,0.3,1.5
			C332.7,46,332.3,46.1,331.8,45.6z"/>
		<path class="st4" d="M355.4,23.8c0.3,0.4,0.6,0.8,0.2,1.4c-0.3,0.5-0.8,0.7-1.3,0.3c-0.5-0.3-0.7-0.9-0.2-1.4
			C354.4,23.5,354.9,23.6,355.4,23.8z"/>
		<path class="st10" d="M352.5,39.2c-0.3,0.4-0.6,0.4-1,0.1c-0.5-0.4-0.4-0.7-0.1-1.1c0.3-0.4,0.7-0.5,1.1-0.1
			C352.9,38.5,352.8,38.8,352.5,39.2z"/>
		<path class="st10" d="M333.1,17c-0.2-0.4-0.5-0.8-0.2-1.2c0.3-0.3,0.8-0.5,1.2-0.2c0.4,0.3,0.4,0.8,0.2,1.2
			C334,17.2,333.5,17.1,333.1,17z"/>
		<path class="st4" d="M335.9,50.9c-0.3,0.4-0.7,0.5-1.1,0.2c-0.4-0.2-0.5-0.7-0.2-1c0.3-0.3,0.7-0.6,1.1-0.3
			C335.9,50.1,336.1,50.4,335.9,50.9z"/>
		<path class="st8" d="M331.8,24.2c-0.7,0-1.3-0.2-1.8-0.7C330.7,23.4,331.5,23.2,331.8,24.2z"/>
		<path class="st2" d="M341.7,32.3c-0.2,0.2-0.3,0.5-0.5,0.7c-0.3,0-0.7,0.1-1,0.1c0.5-0.5,1.1-0.9,1.5-1.5c0.1,0.1,0.1,0.3,0.2,0.4
			C341.8,32.2,341.7,32.2,341.7,32.3z"/>
		<path class="st8" d="M341.8,32.1c-0.1-0.1-0.1-0.3-0.2-0.4c0.2-0.1,0.3-0.2,0.5-0.3C342.2,31.7,342,31.9,341.8,32.1z"/>
		<path class="st12" d="M322.7,23.8c-1.1-0.8-1.3-1.8-0.4-3c0.7-1,2.3-1.3,3.2-0.6c1,0.7,1.2,2.2,0.4,3.3
			C325.1,24.5,323.7,24.6,322.7,23.8z"/>
		<path class="st8" d="M342.7,31.8c0,0.1-0.1,0.1-0.1,0.2C342.4,31.8,342.4,31.7,342.7,31.8z"/>
	</g>
</g>
</svg>
